<svg width="33" height="44" viewBox="0 0 33 44" fill="none" xmlns="http://www.w3.org/2000/svg">
<mask id="path-1-inside-1_125_376" fill="white">
<path d="M16.082 9C11.6092 9 7.98247 12.5633 7.98236 16.959C7.98236 21.3547 14.6856 30.7832 16.082 30.7832C17.4792 30.7814 24.1806 21.3543 24.1806 16.959C24.1805 12.5635 20.5546 9.00021 16.082 9ZM16.0204 14.2012C17.5627 14.2014 18.8124 15.4519 18.8124 16.9941C18.8124 18.5364 17.5626 19.7869 16.0204 19.7871C14.4781 19.7871 13.2275 18.5365 13.2275 16.9941C13.2275 15.4518 14.4781 14.2012 16.0204 14.2012Z"/>
</mask>
<path d="M16.082 9C11.6092 9 7.98247 12.5633 7.98236 16.959C7.98236 21.3547 14.6856 30.7832 16.082 30.7832C17.4792 30.7814 24.1806 21.3543 24.1806 16.959C24.1805 12.5635 20.5546 9.00021 16.082 9ZM16.0204 14.2012C17.5627 14.2014 18.8124 15.4519 18.8124 16.9941C18.8124 18.5364 17.5626 19.7869 16.0204 19.7871C14.4781 19.7871 13.2275 18.5365 13.2275 16.9941C13.2275 15.4518 14.4781 14.2012 16.0204 14.2012Z" fill="white"/>
<path d="M16.082 9L16.082 8L16.082 8L16.082 9ZM7.98236 16.959L6.98236 16.959L6.98236 16.959L7.98236 16.959ZM16.082 30.7832L16.0832 31.7832H16.082V30.7832ZM24.1806 16.959L25.1806 16.959V16.959H24.1806ZM16.0204 14.2012L16.0204 13.2012L16.0206 13.2012L16.0204 14.2012ZM18.8124 16.9941L19.8124 16.9941L19.8124 16.9942L18.8124 16.9941ZM16.0204 19.7871L16.0206 20.7871H16.0204V19.7871ZM13.2275 16.9941L12.2275 16.9942V16.9941H13.2275ZM16.082 9V10C12.1449 10 8.98245 13.1321 8.98236 16.959L7.98236 16.959L6.98236 16.959C6.98248 11.9946 11.0735 8 16.082 8V9ZM7.98236 16.959H8.98236C8.98236 17.8483 9.33384 19.1084 9.96926 20.5762C10.5933 22.0177 11.4472 23.5611 12.3521 24.9825C13.2574 26.4045 14.1975 27.6791 14.9833 28.5868C15.3786 29.0432 15.7161 29.3852 15.9765 29.604C16.1075 29.7141 16.1973 29.7746 16.2478 29.8028C16.3188 29.8424 16.2476 29.7832 16.082 29.7832V30.7832V31.7832C15.7418 31.7832 15.4546 31.6504 15.274 31.5497C15.0729 31.4376 14.8755 31.2913 14.6896 31.135C14.3161 30.821 13.9009 30.392 13.4713 29.8959C12.6076 28.8983 11.6101 27.5411 10.665 26.0565C9.71948 24.5713 8.81031 22.9333 8.13386 21.3707C7.46879 19.8344 6.98236 18.2676 6.98236 16.959H7.98236ZM16.082 30.7832L16.0807 29.7832C15.9156 29.7834 15.8448 29.8424 15.9159 29.8027C15.9665 29.7744 16.0565 29.7138 16.1875 29.6036C16.4479 29.3846 16.7856 29.0425 17.1808 28.586C17.9666 27.6783 18.9066 26.4036 19.8116 24.9817C20.7163 23.5604 21.5701 22.0172 22.194 20.5758C22.8292 19.1082 23.1806 17.8482 23.1806 16.959H24.1806H25.1806C25.1806 18.2674 24.6943 19.8341 24.0294 21.3703C23.3531 22.9327 22.4441 24.5705 21.4988 26.0556C20.5539 27.5401 19.5566 28.8973 18.6929 29.895C18.2634 30.3912 17.8482 30.8203 17.4747 31.1343C17.2888 31.2907 17.0915 31.437 16.8905 31.5492C16.7099 31.6499 16.423 31.7828 16.0832 31.7832L16.082 30.7832ZM24.1806 16.959L23.1806 16.959C23.1805 13.1321 20.0188 10.0002 16.0819 10L16.082 9L16.082 8C21.0904 8.00024 25.1805 11.9948 25.1806 16.959L24.1806 16.959ZM16.0204 14.2012L16.0206 13.2012C18.1153 13.2014 19.8124 14.8999 19.8124 16.9941H18.8124H17.8124C17.8124 16.0038 17.01 15.2013 16.0203 15.2012L16.0204 14.2012ZM18.8124 16.9941L19.8124 16.9942C19.8124 19.0883 18.1153 20.7869 16.0206 20.7871L16.0204 19.7871L16.0203 18.7871C17.01 18.787 17.8124 17.9844 17.8124 16.9941L18.8124 16.9941ZM16.0204 19.7871V20.7871C13.9258 20.7871 12.2275 19.0888 12.2275 16.9942L13.2275 16.9941L14.2275 16.9941C14.2275 17.9842 15.0304 18.7871 16.0204 18.7871V19.7871ZM13.2275 16.9941H12.2275C12.2275 14.8995 13.9258 13.2012 16.0204 13.2012V14.2012V15.2012C15.0304 15.2012 14.2275 16.0041 14.2275 16.9941H13.2275Z" fill="#75ADED" mask="url(#path-1-inside-1_125_376)"/>
<path fill-rule="evenodd" clip-rule="evenodd" d="M30.7433 25.0748C30.7433 25.0748 28.6488 28.8449 17.7573 24.5162C18.4555 28.0071 8.16989 22.9021 6.44686 24.7955C8.82065 27.1693 5.46941 28.0071 2.67672 26.89L2.95599 33.2964C2.95599 33.2964 30.7433 34.4135 30.7433 33.5925C30.7433 33.0172 30.7433 25.0748 30.7433 25.0748Z" fill="white"/>
<path fill-rule="evenodd" clip-rule="evenodd" d="M17.7573 24.5162C28.6488 28.8449 30.7433 25.0748 30.7433 25.0748C30.7433 25.0748 30.7433 33.0172 30.7433 33.5925C30.7433 34.4135 2.95599 33.2964 2.95599 33.2964L2.67672 26.89C5.46941 28.0071 8.82065 27.1693 6.44686 24.7955C8.16989 22.9021 18.4555 28.0071 17.7573 24.5162Z" fill="white"/>
<path d="M30.7433 25.0748C30.7433 25.0748 28.6488 28.8449 17.7573 24.5162C18.4555 28.0071 8.16989 22.9021 6.44686 24.7955C8.82065 27.1693 5.46941 28.0071 2.67672 26.89L2.95599 33.2964C2.95599 33.2964 30.7433 34.4135 30.7433 33.5925C30.7433 33.0172 30.7433 25.0748 30.7433 25.0748Z" stroke="#75ADED"/>
<path fill-rule="evenodd" clip-rule="evenodd" d="M24.8972 25.6838C26.1338 26.9327 19.157 27.5274 15.2438 24.7955C16.0495 28.7537 2.07652 24.4994 4.17408 26.32C6.27163 28.1406 4.56287 28.0397 1.2375 31.7248C-2.08786 35.41 30.6037 32.1794 30.6037 32.1794C30.6037 32.1794 31.521 31.849 31.7207 31.3416C31.9485 30.763 31.0052 30.352 31.3018 29.8056C31.4684 29.4987 32 29.247 32 29.247L30.8829 28.4157C30.8829 28.4157 23.285 24.0556 24.8972 25.6838Z" fill="white" stroke="#75ADED"/>
<path d="M17.6782 29.702C28.4906 33.0725 29.347 29.1074 29.347 29.1074C29.347 29.1074 31.681 30.4829 31.7207 31.0623C31.7541 31.5489 31.4058 33.6764 31 33.9469C30.5463 34.2494 29.2567 33.9469 28 33.9469H24.5H17.6782C17.6782 33.9469 6.49864 33.5753 2.5 32.4586C-2.41697 33.0219 6.86577 26.3315 17.6782 29.702Z" fill="white" stroke="#75ADED"/>
</svg>
